<svg id="Layer_1" data-name="Layer 1" xmlns="http://www.w3.org/2000/svg" viewBox="0 0 430.8 159.3"><defs><style>.cls-1{font-size:140px;font-family:Atrament-Italic, Atrament;font-style:italic;}.cls-2{fill:none;stroke:#000;stroke-miterlimit:10;stroke-width:8px;}</style></defs><title>slotify_logo</title><text class="cls-1" transform="translate(99.97 127.1)">SLOTIFY</text><path d="M421,527.17a.55.55,0,0,0,.55.56.56.56,0,0,0,.56-.56V421.48a.56.56,0,0,0-.56-.56.55.55,0,0,0-.55.56Z" transform="translate(-417.03 -379.9)"/><path class="cls-2" d="M421,527.17a.55.55,0,0,0,.55.56.56.56,0,0,0,.56-.56V421.48a.56.56,0,0,0-.56-.56.55.55,0,0,0-.55.56Z" transform="translate(-417.03 -379.9)"/><path d="M440.14,525.58a.27.27,0,0,0,.27.27.28.28,0,0,0,.28-.27V448.69a.29.29,0,0,0-.28-.28.28.28,0,0,0-.27.28Z" transform="translate(-417.03 -379.9)"/><path class="cls-2" d="M440.14,525.58a.27.27,0,0,0,.27.27.28.28,0,0,0,.28-.27V448.69a.29.29,0,0,0-.28-.28.28.28,0,0,0-.27.28Z" transform="translate(-417.03 -379.9)"/><path d="M480.14,527.15a.55.55,0,0,0,.55.54.54.54,0,0,0,.54-.54V384.45a.54.54,0,0,0-.54-.55.55.55,0,0,0-.55.55Z" transform="translate(-417.03 -379.9)"/><path class="cls-2" d="M480.14,527.15a.55.55,0,0,0,.55.54.54.54,0,0,0,.54-.54V384.45a.54.54,0,0,0-.54-.55.55.55,0,0,0-.55.55Z" transform="translate(-417.03 -379.9)"/><path d="M500.24,527.41a.27.27,0,1,0,.54,0V445.07a.27.27,0,1,0-.54,0Z" transform="translate(-417.03 -379.9)"/><path class="cls-2" d="M500.24,527.41a.27.27,0,1,0,.54,0V445.07a.27.27,0,1,0-.54,0Z" transform="translate(-417.03 -379.9)"/><path d="M460,526.22a.56.56,0,1,0,1.11,0V420.53a.56.56,0,1,0-1.11,0Z" transform="translate(-417.03 -379.9)"/><path class="cls-2" d="M460,526.22a.56.56,0,1,0,1.11,0V420.53a.56.56,0,1,0-1.11,0Z" transform="translate(-417.03 -379.9)"/></svg>